<?xml version="1.0" encoding="utf-8"?><svg xmlns="http://www.w3.org/2000/svg" width="288" height="250" preserveAspectRatio="xMidYMid" xmlns:xlink="http://www.w3.org/1999/xlink" style="margin-right:-2px;display:block;animation-play-state:paused" ><style type="text/css" style="animation-play-state:paused" >text {
    text-anchor: middle; font-size: 64px; opacity: 0;
  }</style>


<g style="transform-origin:144px 125px;transform:matrix(0.790123, 0, 0, 0.790123, 0, 0);animation-play-state:paused" ><g transform="translate(144,125)" style="transform:matrix(1, 0, 0, 1, 144, 125);animation-play-state:paused" ><g transform="translate(0,0)" style="transform:matrix(1, 0, 0, 1, 0, 0);animation-play-state:paused" ><g class="path" style="transform-origin:-138.955px -4.003px;animation-timing-function:linear;animation-play-state:paused;animation-name:static-ecf172e3-865a-4d25-a8b2-d18bce2b991f;animation-iteration-count:infinite;animation-fill-mode:forwards;animation-duration:1s;animation-delay:-0.565714s" ><path d="M22.15-21.28L22.15 0L6.45 0L6.45-56.95L34.45-56.95L34.45-56.95Q38.40-56.95 42.08-56.02L42.08-56.02L42.08-56.02Q45.76-55.09 48.59-53.10L48.59-53.10L48.59-53.10Q51.42-51.10 53.10-47.94L53.10-47.94L53.10-47.94Q54.78-44.77 54.78-40.26L54.78-40.26L54.78-40.26Q54.78-36.74 53.29-33.64L53.29-33.64L53.29-33.64Q51.81-30.53 49.34-28.10L49.34-28.10L49.34-28.10Q46.87-25.67 43.66-24.07L43.66-24.07L43.66-24.07Q40.46-22.46 37.02-21.95L37.02-21.95L37.02-21.95Q38.56-19.34 40.24-17.01L40.24-17.01L40.24-17.01Q41.92-14.67 43.64-12.64L43.64-12.64L43.64-12.64Q45.36-10.60 47.07-8.88L47.07-8.88L47.07-8.88Q48.77-7.16 50.31-5.73L50.31-5.73L50.31-5.73Q53.95-2.41 57.51 0L57.51 0L37.93 0L37.93 0Q35.56-2.25 33.42-5.42L33.42-5.42L33.42-5.42Q31.60-8.11 29.76-12.08L29.76-12.08L29.76-12.08Q27.92-16.06 26.93-21.28L26.93-21.28L22.15-21.28zM38.84-40.26L38.84-40.26L38.84-40.26Q38.84-46.00 36.05-48.69L36.05-48.69L36.05-48.69Q33.26-51.38 27.69-51.38L27.69-51.38L22.15-51.38L22.15-26.66L27.69-26.66L27.69-26.66Q30.65-26.66 32.77-27.78L32.77-27.78L32.77-27.78Q34.88-28.91 36.23-30.79L36.23-30.79L36.23-30.79Q37.57-32.67 38.21-35.12L38.21-35.12L38.21-35.12Q38.84-37.57 38.84-40.26" fill="#1d3f72" stroke="none" stroke-width="none" transform="translate(-170.93502807617188,24.472003479003906)" style="transform:matrix(1, 0, 0, 1, -170.935, 24.472);fill:rgb(29, 63, 114);animation-play-state:paused" ></path></g>
<g class="path" style="transform-origin:-87.92px 1.532px;animation-timing-function:linear;animation-play-state:paused;animation-name:static-ecf172e3-865a-4d25-a8b2-d18bce2b991f;animation-iteration-count:infinite;animation-fill-mode:forwards;animation-duration:1s;animation-delay:-0.471429s" ><path d="M73.37-21.67L73.37-21.67L73.37-21.67Q75.82-21.12 78.27-20.80L78.27-20.80L78.27-20.80Q80.72-20.49 83.21-20.49L83.21-20.49L83.21-20.49Q85.83-20.49 88.06-20.98L88.06-20.98L88.06-20.98Q90.29-21.48 91.94-22.64L91.94-22.64L91.94-22.64Q93.58-23.81 94.53-25.75L94.53-25.75L94.53-25.75Q95.48-27.69 95.48-30.57L95.48-30.57L95.48-30.57Q95.48-32.91 94.84-34.84L94.84-34.84L94.84-34.84Q94.21-36.78 92.96-38.17L92.96-38.17L92.96-38.17Q91.72-39.55 89.90-40.32L89.90-40.32L89.90-40.32Q88.08-41.09 85.67-41.09L85.67-41.09L85.67-41.09Q83.41-41.09 81.61-40.26L81.61-40.26L81.61-40.26Q79.81-39.43 78.45-38.03L78.45-38.03L78.45-38.03Q77.08-36.62 76.12-34.77L76.12-34.77L76.12-34.77Q75.15-32.91 74.51-30.89L74.51-30.89L74.51-30.89Q73.88-28.87 73.60-26.82L73.60-26.82L73.60-26.82Q73.33-24.76 73.33-22.94L73.33-22.94L73.33-22.94Q73.33-22.62 73.33-22.31L73.33-22.31L73.33-22.31Q73.33-21.99 73.37-21.67zM106.31-30.69L106.31-30.69L106.31-30.69Q106.31-27.88 105.40-25.69L105.40-25.69L105.40-25.69Q104.49-23.49 102.93-21.83L102.93-21.83L102.93-21.83Q101.37-20.17 99.31-19.02L99.31-19.02L99.31-19.02Q97.26-17.88 94.92-17.15L94.92-17.15L94.92-17.15Q92.59-16.41 90.12-16.10L90.12-16.10L90.12-16.10Q87.64-15.78 85.31-15.78L85.31-15.78L85.31-15.78Q82.34-15.78 79.46-16.20L79.46-16.20L79.46-16.20Q76.57-16.61 73.76-17.52L73.76-17.52L73.76-17.52Q74.20-14.91 75.15-12.56L75.15-12.56L75.15-12.56Q76.10-10.20 77.68-8.44L77.68-8.44L77.68-8.44Q79.26-6.68 81.57-5.66L81.57-5.66L81.57-5.66Q83.89-4.63 87.05-4.63L87.05-4.63L87.05-4.63Q89.15-4.63 91.05-5.26L91.05-5.26L91.05-5.26Q92.94-5.89 94.53-7.04L94.53-7.04L94.53-7.04Q96.11-8.19 97.31-9.77L97.31-9.77L97.31-9.77Q98.52-11.35 99.27-13.29L99.27-13.29L105.05-11.15L105.05-11.15Q103.74-8.03 101.47-5.75L101.47-5.75L101.47-5.75Q99.19-3.48 96.33-2.00L96.33-2.00L96.33-2.00Q93.46-0.51 90.24 0.20L90.24 0.20L90.24 0.20Q87.01 0.91 83.85 0.91L83.85 0.91L83.85 0.91Q78.63 0.91 74.20-0.85L74.20-0.85L74.20-0.85Q69.77-2.61 66.56-5.77L66.56-5.77L66.56-5.77Q63.36-8.94 61.54-13.33L61.54-13.33L61.54-13.33Q59.72-17.72 59.72-22.94L59.72-22.94L59.72-22.94Q59.72-28.16 61.54-32.55L61.54-32.55L61.54-32.55Q63.36-36.94 66.56-40.10L66.56-40.10L66.56-40.10Q69.77-43.27 74.20-45.03L74.20-45.03L74.20-45.03Q78.63-46.79 83.85-46.79L83.85-46.79L83.85-46.79Q86.38-46.79 89.03-46.43L89.03-46.43L89.03-46.43Q91.68-46.08 94.17-45.31L94.17-45.31L94.17-45.31Q96.66-44.53 98.88-43.31L98.88-43.31L98.88-43.31Q101.09-42.08 102.73-40.28L102.73-40.28L102.73-40.28Q104.37-38.48 105.34-36.11L105.34-36.11L105.34-36.11Q106.31-33.74 106.31-30.69" fill="#1d3f72" stroke="none" stroke-width="none" transform="translate(-170.93502807617188,24.472003479003906)" style="transform:matrix(1, 0, 0, 1, -170.935, 24.472);fill:rgb(86, 153, 210);animation-play-state:paused" ></path></g>
<g class="path" style="transform-origin:-36.52px 1.532px;animation-timing-function:linear;animation-play-state:paused;animation-name:static-ecf172e3-865a-4d25-a8b2-d18bce2b991f;animation-iteration-count:infinite;animation-fill-mode:forwards;animation-duration:1s;animation-delay:-0.377143s" ><path d="M156.82-34.37L156.82-34.37L151.04-32.08L151.04-32.08Q149.66-36.43 146.42-38.76L146.42-38.76L146.42-38.76Q143.17-41.09 138.63-41.09L138.63-41.09L138.63-41.09Q136.17-41.09 134.26-40.32L134.26-40.32L134.26-40.32Q132.34-39.55 130.89-38.21L130.89-38.21L130.89-38.21Q129.45-36.86 128.44-35.08L128.44-35.08L128.44-35.08Q127.43-33.30 126.80-31.28L126.80-31.28L126.80-31.28Q126.17-29.27 125.89-27.11L125.89-27.11L125.89-27.11Q125.61-24.96 125.61-22.94L125.61-22.94L125.61-22.94Q125.61-20.76 125.85-18.55L125.85-18.55L125.85-18.55Q126.09-16.33 126.66-14.30L126.66-14.30L126.66-14.30Q127.23-12.26 128.18-10.50L128.18-10.50L128.18-10.50Q129.13-8.74 130.58-7.44L130.58-7.44L130.58-7.44Q132.02-6.13 134.02-5.38L134.02-5.38L134.02-5.38Q136.02-4.63 138.63-4.63L138.63-4.63L138.63-4.63Q140.72-4.63 142.62-5.26L142.62-5.26L142.62-5.26Q144.52-5.89 146.10-7.04L146.10-7.04L146.10-7.04Q147.68-8.19 148.91-9.77L148.91-9.77L148.91-9.77Q150.13-11.35 150.85-13.29L150.85-13.29L156.66-11.15L156.66-11.15Q155.36-8.03 153.20-5.75L153.20-5.75L153.20-5.75Q151.04-3.48 148.32-2.00L148.32-2.00L148.32-2.00Q145.59-0.51 142.46 0.20L142.46 0.20L142.46 0.20Q139.34 0.91 136.13 0.91L136.13 0.91L136.13 0.91Q130.95 0.91 126.52-0.85L126.52-0.85L126.52-0.85Q122.09-2.61 118.87-5.79L118.87-5.79L118.87-5.79Q115.65-8.98 113.83-13.35L113.83-13.35L113.83-13.35Q112.01-17.72 112.01-22.94L112.01-22.94L112.01-22.94Q112.01-28.20 113.81-32.59L113.81-32.59L113.81-32.59Q115.61-36.98 118.81-40.14L118.81-40.14L118.81-40.14Q122.01-43.31 126.44-45.05L126.44-45.05L126.44-45.05Q130.87-46.79 136.13-46.79L136.13-46.79L136.13-46.79Q139.46-46.79 142.62-46.06L142.62-46.06L142.62-46.06Q145.78-45.33 148.49-43.80L148.49-43.80L148.49-43.80Q151.20-42.28 153.36-39.95L153.36-39.95L153.36-39.95Q155.51-37.61 156.82-34.37" fill="#1d3f72" stroke="none" stroke-width="none" transform="translate(-170.93502807617188,24.472003479003906)" style="transform:matrix(1, 0, 0, 1, -170.935, 24.472);fill:rgb(216, 235, 249);animation-play-state:paused" ></path></g>
<g class="path" style="transform-origin:14.44px 1.532px;animation-timing-function:linear;animation-play-state:paused;animation-name:static-ecf172e3-865a-4d25-a8b2-d18bce2b991f;animation-iteration-count:infinite;animation-fill-mode:forwards;animation-duration:1s;animation-delay:-0.282857s" ><path d="M175.72-21.67L175.72-21.67L175.72-21.67Q178.18-21.12 180.63-20.80L180.63-20.80L180.63-20.80Q183.08-20.49 185.57-20.49L185.57-20.49L185.57-20.49Q188.18-20.49 190.42-20.98L190.42-20.98L190.42-20.98Q192.65-21.48 194.29-22.64L194.29-22.64L194.29-22.64Q195.93-23.81 196.88-25.75L196.88-25.75L196.88-25.75Q197.83-27.69 197.83-30.57L197.83-30.57L197.83-30.57Q197.83-32.91 197.20-34.84L197.20-34.84L197.20-34.84Q196.57-36.78 195.32-38.17L195.32-38.17L195.32-38.17Q194.08-39.55 192.26-40.32L192.26-40.32L192.26-40.32Q190.44-41.09 188.02-41.09L188.02-41.09L188.02-41.09Q185.77-41.09 183.97-40.26L183.97-40.26L183.97-40.26Q182.17-39.43 180.81-38.03L180.81-38.03L180.81-38.03Q179.44-36.62 178.47-34.77L178.47-34.77L178.47-34.77Q177.50-32.91 176.87-30.89L176.87-30.89L176.87-30.89Q176.24-28.87 175.96-26.82L175.96-26.82L175.96-26.82Q175.68-24.76 175.68-22.94L175.68-22.94L175.68-22.94Q175.68-22.62 175.68-22.31L175.68-22.31L175.68-22.31Q175.68-21.99 175.72-21.67zM208.67-30.69L208.67-30.69L208.67-30.69Q208.67-27.88 207.76-25.69L207.76-25.69L207.76-25.69Q206.85-23.49 205.29-21.83L205.29-21.83L205.29-21.83Q203.73-20.17 201.67-19.02L201.67-19.02L201.67-19.02Q199.61-17.88 197.28-17.15L197.28-17.15L197.28-17.15Q194.95-16.41 192.47-16.10L192.47-16.10L192.47-16.10Q190.00-15.78 187.67-15.78L187.67-15.78L187.67-15.78Q184.70-15.78 181.81-16.20L181.81-16.20L181.81-16.20Q178.93-16.61 176.12-17.52L176.12-17.52L176.12-17.52Q176.55-14.91 177.50-12.56L177.50-12.56L177.50-12.56Q178.45-10.20 180.04-8.44L180.04-8.44L180.04-8.44Q181.62-6.68 183.93-5.66L183.93-5.66L183.93-5.66Q186.24-4.63 189.41-4.63L189.41-4.63L189.41-4.63Q191.50-4.63 193.40-5.26L193.40-5.26L193.40-5.26Q195.30-5.89 196.88-7.04L196.88-7.04L196.88-7.04Q198.47-8.19 199.67-9.77L199.67-9.77L199.67-9.77Q200.88-11.35 201.63-13.29L201.63-13.29L207.40-11.15L207.40-11.15Q206.10-8.03 203.82-5.75L203.82-5.75L203.82-5.75Q201.55-3.48 198.68-2.00L198.68-2.00L198.68-2.00Q195.82-0.51 192.59 0.20L192.59 0.20L192.59 0.20Q189.37 0.91 186.21 0.91L186.21 0.91L186.21 0.91Q180.98 0.91 176.55-0.85L176.55-0.85L176.55-0.85Q172.13-2.61 168.92-5.77L168.92-5.77L168.92-5.77Q165.72-8.94 163.90-13.33L163.90-13.33L163.90-13.33Q162.08-17.72 162.08-22.94L162.08-22.94L162.08-22.94Q162.08-28.16 163.90-32.55L163.90-32.55L163.90-32.55Q165.72-36.94 168.92-40.10L168.92-40.10L168.92-40.10Q172.13-43.27 176.55-45.03L176.55-45.03L176.55-45.03Q180.98-46.79 186.21-46.79L186.21-46.79L186.21-46.79Q188.74-46.79 191.39-46.43L191.39-46.43L191.39-46.43Q194.04-46.08 196.53-45.31L196.53-45.31L196.53-45.31Q199.02-44.53 201.23-43.31L201.23-43.31L201.23-43.31Q203.45-42.08 205.09-40.28L205.09-40.28L205.09-40.28Q206.73-38.48 207.70-36.11L207.70-36.11L207.70-36.11Q208.67-33.74 208.67-30.69" fill="#1d3f72" stroke="none" stroke-width="none" transform="translate(-170.93502807617188,24.472003479003906)" style="transform:matrix(1, 0, 0, 1, -170.935, 24.472);fill:rgb(113, 194, 204);animation-play-state:paused" ></path></g>
<g class="path" style="transform-origin:69.435px 5.942px;animation-timing-function:linear;animation-play-state:paused;animation-name:static-ecf172e3-865a-4d25-a8b2-d18bce2b991f;animation-iteration-count:infinite;animation-fill-mode:forwards;animation-duration:1s;animation-delay:-0.188571s" ><path d="M263.72-26.18L263.72-26.18L263.72-26.18Q263.72-21.56 262.60-16.53L262.60-16.53L262.60-16.53Q261.47-11.51 259.45-6.68L259.45-6.68L259.45-6.68Q257.44-1.86 254.63 2.39L254.63 2.39L254.63 2.39Q251.82 6.64 248.46 9.73L248.46 9.73L243.44 7.00L243.44 7.00Q244.50 5.02 245.45 2.57L245.45 2.57L245.45 2.57Q246.40 0.12 247.17-2.63L247.17-2.63L247.17-2.63Q247.94-5.38 248.56-8.31L248.56-8.31L248.56-8.31Q249.17-11.23 249.59-14.10L249.59-14.10L249.59-14.10Q250.00-16.97 250.22-19.68L250.22-19.68L250.22-19.68Q250.44-22.39 250.44-24.72L250.44-24.72L250.44-24.72Q250.44-26.26 250.32-28.02L250.32-28.02L250.32-28.02Q250.20-29.78 249.82-31.54L249.82-31.54L249.82-31.54Q249.45-33.30 248.81-34.92L248.81-34.92L248.81-34.92Q248.18-36.54 247.13-37.77L247.13-37.77L247.13-37.77Q246.08-39.00 244.60-39.75L244.60-39.75L244.60-39.75Q243.12-40.50 241.10-40.50L241.10-40.50L241.10-40.50Q239.12-40.50 237.58-39.61L237.58-39.61L237.58-39.61Q236.04-38.72 234.85-37.28L234.85-37.28L234.85-37.28Q233.67-35.83 232.82-33.97L232.82-33.97L232.82-33.97Q231.97-32.12 231.43-30.16L231.43-30.16L231.43-30.16Q230.90-28.20 230.66-26.30L230.66-26.30L230.66-26.30Q230.42-24.40 230.42-22.90L230.42-22.90L230.42 0L217.02 0L217.02-45.68L222.16-45.68L228.29-35.04L228.29-35.04Q229.39-37.69 231.06-39.87L231.06-39.87L231.06-39.87Q232.72-42.04 234.81-43.58L234.81-43.58L234.81-43.58Q236.91-45.13 239.46-45.96L239.46-45.96L239.46-45.96Q242.01-46.79 244.98-46.79L244.98-46.79L244.98-46.79Q249.72-46.79 253.24-45.25L253.24-45.25L253.24-45.25Q256.76-43.70 259.10-40.95L259.10-40.95L259.10-40.95Q261.43-38.21 262.58-34.43L262.58-34.43L262.58-34.43Q263.72-30.65 263.72-26.18" fill="#1d3f72" stroke="none" stroke-width="none" transform="translate(-170.93502807617188,24.472003479003906)" style="transform:matrix(1, 0, 0, 1, -170.935, 24.472);fill:rgb(73, 150, 162);animation-play-state:paused" ></path></g>
<g class="path" style="transform-origin:114.405px -6.773px;animation-timing-function:linear;animation-play-state:paused;animation-name:static-ecf172e3-865a-4d25-a8b2-d18bce2b991f;animation-iteration-count:infinite;animation-fill-mode:forwards;animation-duration:1s;animation-delay:-0.0942857s" ><path d="M289.27-40.38L289.27 0L275.87 0L275.87-40.38L267.56-40.38L267.56-45.68L275.87-45.68L275.87-62.49L289.27-62.49L289.27-45.68L303.12-45.68L303.12-40.38L289.27-40.38" fill="#1d3f72" stroke="none" stroke-width="none" transform="translate(-170.93502807617188,24.472003479003906)" style="transform:matrix(1, 0, 0, 1, -170.935, 24.472);fill:rgb(120, 84, 113);animation-play-state:paused" ></path></g>
<g class="path" style="transform-origin:156.285px 1.532px;animation-timing-function:linear;animation-play-state:paused;animation-name:static-ecf172e3-865a-4d25-a8b2-d18bce2b991f;animation-iteration-count:infinite;animation-fill-mode:forwards;animation-duration:1s" ><path d="M348.32-14.59L348.32-14.59L348.32-14.59Q348.32-11.59 347.45-9.25L347.45-9.25L347.45-9.25Q346.58-6.92 345.08-5.20L345.08-5.20L345.08-5.20Q343.58-3.48 341.52-2.31L341.52-2.31L341.52-2.31Q339.46-1.15 337.11-0.44L337.11-0.44L337.11-0.44Q334.76 0.28 332.19 0.59L332.19 0.59L332.19 0.59Q329.62 0.91 327.08 0.91L327.08 0.91L327.08 0.91Q323.68 0.91 321.07 0.47L321.07 0.47L321.07 0.47Q318.46 0.04 316.09-0.93L316.09-0.93L316.09-0.93Q313.72-1.90 311.36-3.44L311.36-3.44L311.36-3.44Q309.01-4.98 306.12-7.20L306.12-7.20L313.91-13.57L313.91-13.57Q314.98-11.55 316.74-9.91L316.74-9.91L316.74-9.91Q318.50-8.27 320.40-7.08L320.40-7.08L320.40-7.08Q322.30-5.89 324.08-5.26L324.08-5.26L324.08-5.26Q325.86-4.63 326.97-4.63L326.97-4.63L326.97-4.63Q327.88-4.63 329.02-4.69L329.02-4.69L329.02-4.69Q330.17-4.75 331.36-4.92L331.36-4.92L331.36-4.92Q332.54-5.10 333.69-5.46L333.69-5.46L333.69-5.46Q334.84-5.81 335.73-6.43L335.73-6.43L335.73-6.43Q336.62-7.04 337.15-7.97L337.15-7.97L337.15-7.97Q337.68-8.90 337.68-10.20L337.68-10.20L337.68-10.20Q337.68-11.55 336.99-12.56L336.99-12.56L336.99-12.56Q336.30-13.57 335.19-14.32L335.19-14.32L335.19-14.32Q334.09-15.07 332.66-15.58L332.66-15.58L332.66-15.58Q331.24-16.10 329.79-16.49L329.79-16.49L329.79-16.49Q328.35-16.89 327.01-17.18L327.01-17.18L327.01-17.18Q325.66-17.48 324.67-17.76L324.67-17.76L324.67-17.76Q322.85-18.27 320.84-18.81L320.84-18.81L320.84-18.81Q318.82-19.34 316.84-20.03L316.84-20.03L316.84-20.03Q314.86-20.72 313.06-21.67L313.06-21.67L313.06-21.67Q311.26-22.62 309.90-23.95L309.90-23.95L309.90-23.95Q308.54-25.27 307.72-27.07L307.72-27.07L307.72-27.07Q306.91-28.87 306.91-31.28L306.91-31.28L306.91-31.28Q306.91-35.71 308.67-38.70L308.67-38.70L308.67-38.70Q310.43-41.69 313.32-43.49L313.32-43.49L313.32-43.49Q316.21-45.29 319.89-46.04L319.89-46.04L319.89-46.04Q323.56-46.79 327.36-46.79L327.36-46.79L327.36-46.79Q329.97-46.79 332.86-46.25L332.86-46.25L332.86-46.25Q335.75-45.72 338.48-44.67L338.48-44.67L338.48-44.67Q341.20-43.62 343.58-42.12L343.58-42.12L343.58-42.12Q345.95-40.62 347.53-38.68L347.53-38.68L339.74-32.27L339.74-32.27Q338.87-34.65 337.47-36.35L337.47-36.35L337.47-36.35Q336.06-38.05 334.42-39.14L334.42-39.14L334.42-39.14Q332.78-40.22 331.06-40.74L331.06-40.74L331.06-40.74Q329.34-41.25 327.88-41.25L327.88-41.25L327.88-41.25Q326.45-41.25 324.67-41.13L324.67-41.13L324.67-41.13Q322.89-41.01 321.33-40.46L321.33-40.46L321.33-40.46Q319.77-39.91 318.68-38.78L318.68-38.78L318.68-38.78Q317.59-37.65 317.59-35.67L317.59-35.67L317.59-35.67Q317.59-34.25 318.25-33.24L318.25-33.24L318.25-33.24Q318.90-32.23 319.97-31.50L319.97-31.50L319.97-31.50Q321.03-30.77 322.40-30.28L322.40-30.28L322.40-30.28Q323.76-29.78 325.19-29.41L325.19-29.41L325.19-29.41Q326.61-29.03 327.96-28.75L327.96-28.75L327.96-28.75Q329.30-28.48 330.37-28.16L330.37-28.16L330.37-28.16Q332.19-27.65 334.22-27.11L334.22-27.11L334.22-27.11Q336.26-26.58 338.24-25.89L338.24-25.89L338.24-25.89Q340.22-25.19 342.05-24.26L342.05-24.26L342.05-24.26Q343.89-23.33 345.28-21.99L345.28-21.99L345.28-21.99Q346.66-20.65 347.49-18.85L347.49-18.85L347.49-18.85Q348.32-17.05 348.32-14.59" fill="#1d3f72" stroke="none" stroke-width="none" transform="translate(-170.93502807617188,24.472003479003906)" style="transform:matrix(1, 0, 0, 1, -170.935, 24.472);fill:rgb(232, 205, 197);animation-play-state:paused" ></path></g></g></g></g></svg>