<?xml version="1.0" encoding="utf-8"?>
<svg xmlns="http://www.w3.org/2000/svg" style="margin: auto; display: block; shape-rendering: auto;" width="300" height="250" preserveAspectRatio="xMidYMid">
<style type="text/css">
  text {
    text-anchor: middle; font-size: 80px; opacity: 0;
  }
</style>
<g style="transform-origin: 139.5px 125px; transform: scale(0.827586);">
<g transform="translate(139.5,125)">
  <g transform="translate(0,0)"><g class="path" style="transform: scale(0.91); transform-origin: -135.215px -4.28346px; animation: 1s linear -0.55s infinite normal forwards running breath-7fe800cd-b6e5-43e7-ae8f-60b39a7b5764;"><path d="M57.05-18.69L57.05-18.69L57.05-18.69Q57.05-14.74 56.05-11.72L56.05-11.72L56.05-11.72Q55.05-8.71 53.25-6.50L53.25-6.50L53.25-6.50Q51.44-4.29 48.98-2.80L48.98-2.80L48.98-2.80Q46.52-1.32 43.61-0.42L43.61-0.42L43.61-0.42Q40.70 0.47 37.45 0.85L37.45 0.85L37.45 0.85Q34.20 1.23 30.84 1.23L30.84 1.23L30.84 1.23Q26.42 1.23 22.68 0.57L22.68 0.57L22.68 0.57Q18.95-0.08 15.65-1.51L15.65-1.51L15.65-1.51Q12.36-2.93 9.32-5.18L9.32-5.18L9.32-5.18Q6.29-7.43 3.27-10.66L3.27-10.66L11.94-19.46L11.94-19.46Q13.13-16.52 15.21-14.04L15.21-14.04L15.21-14.04Q17.29-11.55 19.77-9.77L19.77-9.77L19.77-9.77Q22.26-7.99 24.94-6.97L24.94-6.97L24.94-6.97Q27.61-5.95 29.99-5.95L29.99-5.95L29.99-5.95Q32.79-5.95 35.26-6.35L35.26-6.35L35.26-6.35Q37.72-6.75 39.55-7.69L39.55-7.69L39.55-7.69Q41.38-8.62 42.42-10.17L42.42-10.17L42.42-10.17Q43.46-11.72 43.46-14.06L43.46-14.06L43.46-14.06Q43.46-15.85 42.65-17.12L42.65-17.12L42.65-17.12Q41.84-18.39 40.55-19.31L40.55-19.31L40.55-19.31Q39.25-20.22 37.60-20.86L37.60-20.86L37.60-20.86Q35.94-21.50 34.22-21.94L34.22-21.94L34.22-21.94Q32.50-22.39 30.84-22.75L30.84-22.75L30.84-22.75Q29.18-23.11 27.91-23.49L27.91-23.49L27.91-23.49Q25.40-24.21 22.68-25.04L22.68-25.04L22.68-25.04Q19.97-25.87 17.33-26.93L17.33-26.93L17.33-26.93Q14.70-27.99 12.34-29.38L12.34-29.38L12.34-29.38Q9.98-30.76 8.20-32.65L8.20-32.65L8.20-32.65Q6.41-34.54 5.35-37.02L5.35-37.02L5.35-37.02Q4.29-39.51 4.29-42.74L4.29-42.74L4.29-42.74Q4.29-46.60 5.25-49.60L5.25-49.60L5.25-49.60Q6.20-52.59 7.94-54.80L7.94-54.80L7.94-54.80Q9.69-57.01 12.06-58.52L12.06-58.52L12.06-58.52Q14.44-60.02 17.29-60.94L17.29-60.94L17.29-60.94Q20.14-61.85 23.34-62.26L23.34-62.26L23.34-62.26Q26.55-62.66 29.91-62.66L29.91-62.66L29.91-62.66Q34.49-62.66 38.25-61.81L38.25-61.81L38.25-61.81Q42.01-60.96 45.20-59.39L45.20-59.39L45.20-59.39Q48.39-57.82 51.04-55.63L51.04-55.63L51.04-55.63Q53.70-53.44 56.03-50.76L56.03-50.76L47.37-41.97L47.37-41.97Q46.35-45.03 44.54-47.49L44.54-47.49L44.54-47.49Q42.74-49.96 40.53-51.72L40.53-51.72L40.53-51.72Q38.32-53.48 35.90-54.44L35.90-54.44L35.90-54.44Q33.47-55.39 31.22-55.39L31.22-55.39L31.22-55.39Q28.29-55.39 25.83-54.99L25.83-54.99L25.83-54.99Q23.36-54.59 21.60-53.67L21.60-53.67L21.60-53.67Q19.84-52.76 18.86-51.21L18.86-51.21L18.86-51.21Q17.88-49.66 17.88-47.37L17.88-47.37L17.88-47.37Q17.88-45.54 18.61-44.26L18.61-44.26L18.61-44.26Q19.33-42.99 20.54-42.10L20.54-42.10L20.54-42.10Q21.75-41.21 23.28-40.63L23.28-40.63L23.28-40.63Q24.81-40.06 26.44-39.63L26.44-39.63L26.44-39.63Q28.08-39.21 29.67-38.89L29.67-38.89L29.67-38.89Q31.27-38.57 32.58-38.19L32.58-38.19L32.58-38.19Q35.13-37.47 37.94-36.66L37.94-36.66L37.94-36.66Q40.74-35.85 43.46-34.77L43.46-34.77L43.46-34.77Q46.18-33.69 48.64-32.29L48.64-32.29L48.64-32.29Q51.10-30.88 52.97-28.95L52.97-28.95L52.97-28.95Q54.84-27.02 55.95-24.49L55.95-24.49L55.95-24.49Q57.05-21.96 57.05-18.69" fill="#93dbe9" stroke="none" stroke-width="none" transform="translate(-165.375,26.43153503417969)" style="fill: rgb(147, 219, 233);"></path></g><g class="path" style="transform: scale(0.91); transform-origin: -77.1px 1.79654px; animation: 1s linear -0.44s infinite normal forwards running breath-7fe800cd-b6e5-43e7-ae8f-60b39a7b5764;"><path d="M77.91-23.28L77.91-23.28L77.91-23.28Q80.54-22.68 83.18-22.34L83.18-22.34L83.18-22.34Q85.81-22.00 88.49-22.00L88.49-22.00L88.49-22.00Q91.29-22.00 93.69-22.54L93.69-22.54L93.69-22.54Q96.09-23.07 97.85-24.32L97.85-24.32L97.85-24.32Q99.62-25.57 100.64-27.65L100.64-27.65L100.64-27.65Q101.66-29.74 101.66-32.84L101.66-32.84L101.66-32.84Q101.66-35.34 100.98-37.43L100.98-37.43L100.98-37.43Q100.30-39.51 98.96-40.99L98.96-40.99L98.96-40.99Q97.62-42.48 95.67-43.31L95.67-43.31L95.67-43.31Q93.71-44.14 91.12-44.14L91.12-44.14L91.12-44.14Q88.70-44.14 86.77-43.25L86.77-43.25L86.77-43.25Q84.83-42.35 83.37-40.84L83.37-40.84L83.37-40.84Q81.90-39.34 80.86-37.34L80.86-37.34L80.86-37.34Q79.82-35.34 79.14-33.18L79.14-33.18L79.14-33.18Q78.46-31.01 78.16-28.80L78.16-28.80L78.16-28.80Q77.87-26.59 77.87-24.64L77.87-24.64L77.87-24.64Q77.87-24.30 77.87-23.96L77.87-23.96L77.87-23.96Q77.87-23.62 77.91-23.28zM113.30-32.96L113.30-32.96L113.30-32.96Q113.30-29.95 112.32-27.59L112.32-27.59L112.32-27.59Q111.34-25.23 109.66-23.45L109.66-23.45L109.66-23.45Q107.99-21.67 105.78-20.43L105.78-20.43L105.78-20.43Q103.57-19.20 101.06-18.42L101.06-18.42L101.06-18.42Q98.55-17.63 95.90-17.29L95.90-17.29L95.90-17.29Q93.24-16.95 90.74-16.95L90.74-16.95L90.74-16.95Q87.55-16.95 84.45-17.40L84.45-17.40L84.45-17.40Q81.35-17.84 78.33-18.82L78.33-18.82L78.33-18.82Q78.80-16.02 79.82-13.49L79.82-13.49L79.82-13.49Q80.84-10.96 82.54-9.07L82.54-9.07L82.54-9.07Q84.24-7.18 86.72-6.07L86.72-6.07L86.72-6.07Q89.21-4.97 92.61-4.97L92.61-4.97L92.61-4.97Q94.86-4.97 96.90-5.65L96.90-5.65L96.90-5.65Q98.94-6.33 100.64-7.56L100.64-7.56L100.64-7.56Q102.34-8.79 103.63-10.49L103.63-10.49L103.63-10.49Q104.93-12.19 105.73-14.27L105.73-14.27L111.94-11.98L111.94-11.98Q110.53-8.62 108.09-6.18L108.09-6.18L108.09-6.18Q105.65-3.74 102.57-2.15L102.57-2.15L102.57-2.15Q99.49-0.55 96.03 0.21L96.03 0.21L96.03 0.21Q92.56 0.98 89.17 0.98L89.17 0.98L89.17 0.98Q83.56 0.98 78.80-0.91L78.80-0.91L78.80-0.91Q74.04-2.80 70.60-6.20L70.60-6.20L70.60-6.20Q67.16-9.60 65.21-14.32L65.21-14.32L65.21-14.32Q63.25-19.03 63.25-24.64L63.25-24.64L63.25-24.64Q63.25-30.25 65.21-34.96L65.21-34.96L65.21-34.96Q67.16-39.68 70.60-43.08L70.60-43.08L70.60-43.08Q74.04-46.47 78.80-48.36L78.80-48.36L78.80-48.36Q83.56-50.25 89.17-50.25L89.17-50.25L89.17-50.25Q91.89-50.25 94.73-49.87L94.73-49.87L94.73-49.87Q97.58-49.49 100.25-48.66L100.25-48.66L100.25-48.66Q102.93-47.83 105.31-46.52L105.31-46.52L105.31-46.52Q107.69-45.20 109.45-43.27L109.45-43.27L109.45-43.27Q111.21-41.33 112.25-38.78L112.25-38.78L112.25-38.78Q113.30-36.24 113.30-32.96" fill="#93dbe9" stroke="none" stroke-width="none" transform="translate(-165.375,26.43153503417969)" style="fill: rgb(104, 156, 197);"></path></g><g class="path" style="transform: scale(0.91); transform-origin: -19.795px 1.79654px; animation: 1s linear -0.33s infinite normal forwards running breath-7fe800cd-b6e5-43e7-ae8f-60b39a7b5764;"><path d="M171.66-49.06L171.66 0L157.31 0L157.31-5.86L157.31-5.86Q154.76-2.38 151.17-0.70L151.17-0.70L151.17-0.70Q147.58 0.98 143.29 0.98L143.29 0.98L143.29 0.98Q137.68 0.98 133.26-1.02L133.26-1.02L133.26-1.02Q128.84-3.02 125.78-6.48L125.78-6.48L125.78-6.48Q122.73-9.94 121.11-14.61L121.11-14.61L121.11-14.61Q119.50-19.29 119.50-24.64L119.50-24.64L119.50-24.64Q119.50-29.99 121.11-34.66L121.11-34.66L121.11-34.66Q122.73-39.34 125.78-42.80L125.78-42.80L125.78-42.80Q128.84-46.26 133.26-48.26L133.26-48.26L133.26-48.26Q137.68-50.25 143.29-50.25L143.29-50.25L143.29-50.25Q146.13-50.25 148.70-49.40L148.70-49.40L148.70-49.40Q151.27-48.56 153.42-47.00L153.42-47.00L153.42-47.00Q155.56-45.45 157.20-43.27L157.20-43.27L157.20-43.27Q158.83-41.08 159.77-38.40L159.77-38.40L166.14-49.06L171.66-49.06zM157.22-24.64L157.22-24.64L157.22-24.64Q157.22-26.55 157.03-28.67L157.03-28.67L157.03-28.67Q156.84-30.80 156.37-32.88L156.37-32.88L156.37-32.88Q155.90-34.96 155.07-36.85L155.07-36.85L155.07-36.85Q154.25-38.74 152.95-40.21L152.95-40.21L152.95-40.21Q151.66-41.67 149.83-42.52L149.83-42.52L149.83-42.52Q148.00-43.37 145.58-43.37L145.58-43.37L145.58-43.37Q143.16-43.37 141.38-42.50L141.38-42.50L141.38-42.50Q139.59-41.63 138.32-40.17L138.32-40.17L138.32-40.17Q137.04-38.70 136.21-36.79L136.21-36.79L136.21-36.79Q135.39-34.88 134.92-32.79L134.92-32.79L134.92-32.79Q134.45-30.71 134.26-28.61L134.26-28.61L134.26-28.61Q134.07-26.51 134.07-24.64L134.07-24.64L134.07-24.64Q134.07-22.77 134.26-20.65L134.26-20.65L134.26-20.65Q134.45-18.52 134.92-16.44L134.92-16.44L134.92-16.44Q135.39-14.36 136.21-12.45L136.21-12.45L136.21-12.45Q137.04-10.54 138.32-9.07L138.32-9.07L138.32-9.07Q139.59-7.60 141.38-6.73L141.38-6.73L141.38-6.73Q143.16-5.86 145.58-5.86L145.58-5.86L145.58-5.86Q147.79-5.86 149.51-6.78L149.51-6.78L149.51-6.78Q151.23-7.69 152.53-9.22L152.53-9.22L152.53-9.22Q153.82-10.75 154.71-12.70L154.71-12.70L154.71-12.70Q155.61-14.66 156.16-16.74L156.16-16.74L156.16-16.74Q156.71-18.82 156.97-20.88L156.97-20.88L156.97-20.88Q157.22-22.94 157.22-24.64" fill="#93dbe9" stroke="none" stroke-width="none" transform="translate(-165.375,26.43153503417969)" style="fill: rgb(94, 111, 163);"></path></g><g class="path" style="transform: scale(0.91); transform-origin: 39.125px 1.30654px; animation: 1s linear -0.22s infinite normal forwards running breath-7fe800cd-b6e5-43e7-ae8f-60b39a7b5764;"><path d="M225.36-44.73L225.36-44.73L217.29-31.35L217.29-31.35Q216.78-33.05 215.97-35.17L215.97-35.17L215.97-35.17Q215.16-37.30 213.97-39.15L213.97-39.15L213.97-39.15Q212.78-40.99 211.13-42.25L211.13-42.25L211.13-42.25Q209.47-43.50 207.30-43.50L207.30-43.50L207.30-43.50Q205.31-43.50 203.84-42.48L203.84-42.48L203.84-42.48Q202.38-41.46 201.36-39.83L201.36-39.83L201.36-39.83Q200.34-38.19 199.68-36.13L199.68-36.13L199.68-36.13Q199.02-34.07 198.66-31.97L198.66-31.97L198.66-31.97Q198.30-29.86 198.17-27.93L198.17-27.93L198.17-27.93Q198.04-26.00 198.04-24.60L198.04-24.60L198.04 0L183.64 0L183.64-49.06L189.17-49.06L194.99-37.64L194.99-37.64Q196.17-40.40 197.70-42.71L197.70-42.71L197.70-42.71Q199.23-45.03 201.23-46.71L201.23-46.71L201.23-46.71Q203.23-48.39 205.75-49.32L205.75-49.32L205.75-49.32Q208.28-50.25 211.47-50.25L211.47-50.25L211.47-50.25Q213.12-50.25 215.16-49.98L215.16-49.98L215.16-49.98Q217.20-49.70 219.16-49.04L219.16-49.04L219.16-49.04Q221.11-48.39 222.77-47.32L222.77-47.32L222.77-47.32Q224.42-46.26 225.36-44.73" fill="#93dbe9" stroke="none" stroke-width="none" transform="translate(-165.375,26.43153503417969)" style="fill: rgb(59, 67, 104);"></path></g><g class="path" style="transform: scale(0.91); transform-origin: 85.92px 1.79654px; animation: 1s linear -0.11s infinite normal forwards running breath-7fe800cd-b6e5-43e7-ae8f-60b39a7b5764;"><path d="M275.36-36.92L275.36-36.92L269.16-34.45L269.16-34.45Q267.67-39.12 264.19-41.63L264.19-41.63L264.19-41.63Q260.70-44.14 255.82-44.14L255.82-44.14L255.82-44.14Q253.18-44.14 251.12-43.31L251.12-43.31L251.12-43.31Q249.06-42.48 247.51-41.04L247.51-41.04L247.51-41.04Q245.96-39.59 244.88-37.68L244.88-37.68L244.88-37.68Q243.80-35.77 243.12-33.60L243.12-33.60L243.12-33.60Q242.44-31.44 242.14-29.12L242.14-29.12L242.14-29.12Q241.84-26.81 241.84-24.64L241.84-24.64L241.84-24.64Q241.84-22.30 242.10-19.92L242.10-19.92L242.10-19.92Q242.35-17.54 242.97-15.36L242.97-15.36L242.97-15.36Q243.58-13.17 244.60-11.28L244.60-11.28L244.60-11.28Q245.62-9.39 247.17-7.99L247.17-7.99L247.17-7.99Q248.72-6.58 250.87-5.78L250.87-5.78L250.87-5.78Q253.01-4.97 255.82-4.97L255.82-4.97L255.82-4.97Q258.07-4.97 260.11-5.65L260.11-5.65L260.11-5.65Q262.15-6.33 263.85-7.56L263.85-7.56L263.85-7.56Q265.55-8.79 266.86-10.49L266.86-10.49L266.86-10.49Q268.18-12.19 268.94-14.27L268.94-14.27L275.19-11.98L275.19-11.98Q273.79-8.62 271.47-6.18L271.47-6.18L271.47-6.18Q269.16-3.74 266.23-2.15L266.23-2.15L266.23-2.15Q263.29-0.55 259.94 0.21L259.94 0.21L259.94 0.21Q256.58 0.98 253.14 0.98L253.14 0.98L253.14 0.98Q247.58 0.98 242.82-0.91L242.82-0.91L242.82-0.91Q238.06-2.80 234.60-6.22L234.60-6.22L234.60-6.22Q231.14-9.64 229.18-14.34L229.18-14.34L229.18-14.34Q227.23-19.03 227.23-24.64L227.23-24.64L227.23-24.64Q227.23-30.29 229.16-35.00L229.16-35.00L229.16-35.00Q231.09-39.72 234.53-43.12L234.53-43.12L234.53-43.12Q237.98-46.52 242.73-48.39L242.73-48.39L242.73-48.39Q247.49-50.25 253.14-50.25L253.14-50.25L253.14-50.25Q256.71-50.25 260.11-49.47L260.11-49.47L260.11-49.47Q263.51-48.68 266.42-47.05L266.42-47.05L266.42-47.05Q269.33-45.41 271.64-42.91L271.64-42.91L271.64-42.91Q273.96-40.40 275.36-36.92" fill="#93dbe9" stroke="none" stroke-width="none" transform="translate(-165.375,26.43153503417969)" style="fill: rgb(25, 29, 58);"></path></g><g class="path" style="transform: scale(0.91); transform-origin: 143.56px -1.90347px; animation: 1s linear 0s infinite normal forwards running breath-7fe800cd-b6e5-43e7-ae8f-60b39a7b5764;"><path d="M334.02-28.12L334.02-28.12L334.02-28.12Q334.02-23.15 332.81-17.76L332.81-17.76L332.81-17.76Q331.60-12.36 329.44-7.18L329.44-7.18L329.44-7.18Q327.27-2.00 324.25 2.57L324.25 2.57L324.25 2.57Q321.24 7.14 317.63 10.45L317.63 10.45L312.23 7.52L312.23 7.52Q313.38 5.40 314.40 2.76L314.40 2.76L314.40 2.76Q315.42 0.13 316.25-2.82L316.25-2.82L316.25-2.82Q317.07-5.78 317.73-8.92L317.73-8.92L317.73-8.92Q318.39-12.06 318.84-15.14L318.84-15.14L318.84-15.14Q319.28-18.22 319.52-21.13L319.52-21.13L319.52-21.13Q319.75-24.04 319.75-26.55L319.75-26.55L319.75-26.55Q319.75-28.21 319.62-30.10L319.62-30.10L319.62-30.10Q319.50-31.99 319.09-33.88L319.09-33.88L319.09-33.88Q318.69-35.77 318.01-37.51L318.01-37.51L318.01-37.51Q317.33-39.25 316.20-40.57L316.20-40.57L316.20-40.57Q315.08-41.89 313.48-42.69L313.48-42.69L313.48-42.69Q311.89-43.50 309.73-43.50L309.73-43.50L309.73-43.50Q307.60-43.50 305.94-42.54L305.94-42.54L305.94-42.54Q304.29-41.59 303.01-40.04L303.01-40.04L303.01-40.04Q301.74-38.49 300.83-36.49L300.83-36.49L300.83-36.49Q299.91-34.49 299.34-32.39L299.34-32.39L299.34-32.39Q298.77-30.29 298.51-28.25L298.51-28.25L298.51-28.25Q298.26-26.21 298.26-24.60L298.26-24.60L298.26 0L283.85 0L283.85-67.12L298.21-67.12L298.21-41.84L298.21-41.84Q300.97-45.88 304.99-48.07L304.99-48.07L304.99-48.07Q309.00-50.25 313.89-50.25L313.89-50.25L313.89-50.25Q318.99-50.25 322.77-48.60L322.77-48.60L322.77-48.60Q326.55-46.94 329.05-43.99L329.05-43.99L329.05-43.99Q331.56-41.04 332.79-36.98L332.79-36.98L332.79-36.98Q334.02-32.92 334.02-28.12" fill="#93dbe9" stroke="none" stroke-width="none" transform="translate(-165.375,26.43153503417969)" style="fill: rgb(217, 219, 238);"></path></g></g>
</g>
</g>
<style id="breath-7fe800cd-b6e5-43e7-ae8f-60b39a7b5764" data-anikit="">@keyframes breath-7fe800cd-b6e5-43e7-ae8f-60b39a7b5764
{
  0% {
    animation-timing-function: cubic-bezier(0.9647,0.2413,-0.0705,0.7911);
    transform: scale(0.9099999999999999);
  }
  51% {
    animation-timing-function: cubic-bezier(0.9226,0.2631,-0.0308,0.7628);
    transform: scale(1.02994);
  }
  100% {
    transform: scale(0.9099999999999999);
  }
}</style></svg>